GIL06_xslow1_ik
nRows=3
nColumns=375

# SIMM Motion File Header:
name GIL06_xslow1_ik
datacolumns 375
datarows 3
otherdata 1
range 0.37500000 0.39167000
endheader
time	pelvis_tx	pelvis_ty	pelvis_tz	pelvis_tilt	pelvis_list	pelvis_rotation	hip_flexion_r	hip_adduction_r	hip_rotation_r	knee_angle_r	ankle_angle_r	hip_flexion_l	hip_adduction_l	hip_rotation_l	knee_angle_l	ankle_angle_l	lumbar_extension	lumbar_bending	lumbar_rotation	subtalar_angle_r	mtp_angle_r	subtalar_angle_l	mtp_angle_l	asis_r_px	asis_r_py	asis_r_pz	asis_l_px	asis_l_py	asis_l_pz	midasis_px	midasis_py	midasis_pz	psis_r_px	psis_r_py	psis_r_pz	psis_l_px	psis_l_py	psis_l_pz	hip_r_px	hip_r_py	hip_r_pz	hip_l_px	hip_l_py	hip_l_pz	midhip_px	midhip_py	midhip_pz	epicondLat_r_px	epicondLat_r_py	epicondLat_r_pz	epicondMed_r_px	epicondMed_r_py	epicondMed_r_pz	thighwand_r_px	thighwand_r_py	thighwand_r_pz	upperleg1_r_px	upperleg1_r_py	upperleg1_r_pz	upperleg2_r_px	upperleg2_r_py	upperleg2_r_pz	malleolusLat_r_px	malleolusLat_r_py	malleolusLat_r_pz	malleolusMedv_r_px	malleolusMedv_r_py	malleolusMedv_r_pz	shankwand_r_px	shankwand_r_py	shankwand_r_pz	lowerleg1_r_px	lowerleg1_r_py	lowerleg1_r_pz	knee_r_px	knee_r_py	knee_r_pz	ankle_r_px	ankle_r_py	ankle_r_pz	toe_r_px	toe_r_py	toe_r_pz	epicondLat_l_px	epicondLat_l_py	epicondLat_l_pz	epicondMed_l_px	epicondMed_l_py	epicondMed_l_pz	thighwand_l_px	thighwand_l_py	thighwand_l_pz	upperleg1_l_px	upperleg1_l_py	upperleg1_l_pz	upperleg2_l_px	upperleg2_l_py	upperleg2_l_pz	malleolusLat_l_px	malleolusLat_l_py	malleolusLat_l_pz	malleolusMedv_l_px	malleolusMedv_l_py	malleolusMedv_l_pz	shankwand_l_px	shankwand_l_py	shankwand_l_pz	lowerleg1_l_px	lowerleg1_l_py	lowerleg1_l_pz	knee_l_px	knee_l_py	knee_l_pz	ankle_l_px	ankle_l_py	ankle_l_pz	toe_l_px	toe_l_py	toe_l_pz	subclavicle_r_px	subclavicle_r_py	subclavicle_r_pz	subclavicle_l_px	subclavicle_l_py	subclavicle_l_pz	neck_px	neck_py	neck_pz	sternalnotch_px	sternalnotch_py	sternalnotch_pz	xyphoidprocess_px	xyphoidprocess_py	xyphoidprocess_pz	midhip_tx	midhip_ty	midhip_tz	hip_r_tx	hip_r_ty	hip_r_tz	hip_l_tx	hip_l_ty	hip_l_tz	knee_r_tx	knee_r_ty	knee_r_tz	knee_l_tx	knee_l_ty	knee_l_tz	ankle_r_tx	ankle_r_ty	ankle_r_tz	ankle_l_tx	ankle_l_ty	ankle_l_tz	midasis_tx	midasis_ty	midasis_tz	asis_r_tx	asis_r_ty	asis_r_tz	asis_l_tx	asis_l_ty	asis_l_tz	psis_r_tx	psis_r_ty	psis_r_tz	psis_l_tx	psis_l_ty	psis_l_tz	epicondLat_r_tx	epicondLat_r_ty	epicondLat_r_tz	epicondLat_l_tx	epicondLat_l_ty	epicondLat_l_tz	epicondMed_r_tx	epicondMed_r_ty	epicondMed_r_tz	epicondMed_l_tx	epicondMed_l_ty	epicondMed_l_tz	malleolusLat_r_tx	malleolusLat_r_ty	malleolusLat_r_tz	malleolusLat_l_tx	malleolusLat_l_ty	malleolusLat_l_tz	malleolusMedv_r_tx	malleolusMedv_r_ty	malleolusMedv_r_tz	malleolusMedv_l_tx	malleolusMedv_l_ty	malleolusMedv_l_tz	neck_tx	neck_ty	neck_tz	subclavicle_r_tx	subclavicle_r_ty	subclavicle_r_tz	subclavicle_l_tx	subclavicle_l_ty	subclavicle_l_tz	sternalnotch_tx	sternalnotch_ty	sternalnotch_tz	xyphoidprocess_tx	xyphoidprocess_ty	xyphoidprocess_tz	thighwand_r_tx	thighwand_r_ty	thighwand_r_tz	thighwand_l_tx	thighwand_l_ty	thighwand_l_tz	upperleg1_r_tx	upperleg1_r_ty	upperleg1_r_tz	upperleg1_l_tx	upperleg1_l_ty	upperleg1_l_tz	upperleg2_r_tx	upperleg2_r_ty	upperleg2_r_tz	upperleg2_l_tx	upperleg2_l_ty	upperleg2_l_tz	shankwand_r_tx	shankwand_r_ty	shankwand_r_tz	shankwand_l_tx	shankwand_l_ty	shankwand_l_tz	lowerleg1_r_tx	lowerleg1_r_ty	lowerleg1_r_tz	lowerleg1_l_tx	lowerleg1_l_ty	lowerleg1_l_tz	toe_r_tx	toe_r_ty	toe_r_tz	toe_l_tx	toe_l_ty	toe_l_tz	ground_force_vx	ground_force_vy	ground_force_vz	ground_force_px	ground_force_py	ground_force_pz	ground_force_vx	ground_force_vy	ground_force_vz	ground_force_px	ground_force_py	ground_force_pz	ground_torque_x	ground_torque_y	ground_torque_z	ground_torque_x	ground_torque_y	ground_torque_z	ground_marker_px	ground_marker_py	ground_marker_pz	ground_marker_px	ground_marker_py	ground_marker_pz	ground_marker_px	ground_marker_py	ground_marker_pz	ground_marker_px	ground_marker_py	ground_marker_pz	ground_marker_px	ground_marker_py	ground_marker_pz	ground_marker_px	ground_marker_py	ground_marker_pz	ground_marker_px	ground_marker_py	ground_marker_pz	ground_marker_px	ground_marker_py	ground_marker_pz	ground_marker_px	ground_marker_py	ground_marker_pz	ground_marker_px	ground_marker_py	ground_marker_pz	ground_marker_px	ground_marker_py	ground_marker_pz	ground_marker_px	ground_marker_py	ground_marker_pz	ground_marker_px	ground_marker_py	ground_marker_pz	ground_marker_px	ground_marker_py	ground_marker_pz	ground_marker_px	ground_marker_py	ground_marker_pz	ground_marker_px	ground_marker_py	ground_marker_pz	ground_marker_px	ground_marker_py	ground_marker_pz	ground_marker_px	ground_marker_py	ground_marker_pz	ground_marker_px	ground_marker_py	ground_marker_pz	ground_marker_px	ground_marker_py	ground_marker_pz	ground_marker_px	ground_marker_py	ground_marker_pz	ground_marker_px	ground_marker_py	ground_marker_pz	ground_marker_px	ground_marker_py	ground_marker_pz	ground_marker_px	ground_marker_py	ground_marker_pz	ground_marker_px	ground_marker_py	ground_marker_pz	ground_marker_px	ground_marker_py	ground_marker_pz	ground_marker_px	ground_marker_py	ground_marker_pz	ground_marker_px	ground_marker_py	ground_marker_pz	ground_marker_px	ground_marker_py	ground_marker_pz	ground_marker_px	ground_marker_py	ground_marker_pz	ground_marker_px	ground_marker_py	ground_marker_pz	ground_marker_px	ground_marker_py	ground_marker_pz	ground_marker_px	ground_marker_py	ground_marker_pz	ground_marker_px	ground_marker_py	ground_marker_pz	ground_marker_px	ground_marker_py	ground_marker_pz	ground_marker_px	ground_marker_py	ground_marker_pz	ground_marker_px	ground_marker_py	ground_marker_pz
      0.37500000	      0.25266336	      0.84082665	     -0.26747943	     -3.89555355	      2.29731526	     -4.02293286	      2.36560014	     -6.83388997	      0.33430748	    -46.64097030	    -19.95705149	      9.65622205	      5.45495842	     -1.40678664	     -1.97275697	     -6.13562248	      7.59222431	     -4.72000079	     13.80197655	      0.00000000	      0.00000000	      0.00000000	      0.00000000	      0.30031316	      0.82128853	     -0.14728510	      0.31679305	      0.82916496	     -0.39252649	      0.26604571	      0.83987747	     -0.26653666	      0.07353291	      0.92766364	     -0.24852241	      0.07289902	      0.92805546	     -0.30376136	      0.17493965	      0.77950121	     -0.19483375	      0.18660440	      0.78513665	     -0.35473776	      0.18077203	      0.78231893	     -0.27478576	      0.15846180	      0.40197888	     -0.10427866	      0.14842907	      0.39979865	     -0.24903358	      0.32153323	      0.55122012	     -0.10839881	      0.28487828	      0.57310777	     -0.13209411	      0.25575240	      0.50098774	     -0.13528798	     -0.12722976	      0.17109346	     -0.11547414	     -0.10624054	      0.15734239	     -0.18799613	      0.04536649	      0.19959878	     -0.12593983	      0.02037368	      0.23610376	     -0.14388614	      0.16452035	      0.40851589	     -0.16422871	     -0.11150136	      0.16461580	     -0.16121168	     -0.09401223	      0.05523495	     -0.13846097	      0.21980432	      0.40639004	     -0.39668661	      0.21547434	      0.40203098	     -0.24819902	      0.38109322	      0.60354284	     -0.35048513	      0.33277132	      0.61431439	     -0.35878918	      0.32175129	      0.54161253	     -0.35161599	      0.21854870	      0.03752552	     -0.34815261	      0.23317655	      0.06006531	     -0.27284643	      0.19895734	      0.14359035	     -0.42059360	      0.20157431	      0.15851329	     -0.37410913	      0.21660623	      0.42059473	     -0.33033811	      0.23809740	      0.05365645	     -0.30628056	      0.33505373	      0.02555998	     -0.31868908	      0.20366875	      1.28502074	     -0.24708455	      0.19868385	      1.28466659	     -0.32886250	      0.05993883	      1.32141283	     -0.27734280	      0.18529416	      1.27572551	     -0.29916273	      0.25234762	      1.21562213	     -0.30179025	      0.17936000	      0.77475500	     -0.27681300	      0.15406400	      0.77692200	     -0.19907300	      0.16566900	      0.77993200	     -0.35424000	      0.14503700	      0.39617100	     -0.15993700	      0.20408300	      0.42168100	     -0.32557200	     -0.11991600	      0.15425200	     -0.16779000	      0.23140300	      0.05860500	     -0.30121100	      0.28632900	      0.85206000	     -0.26577000	      0.27706100	      0.84965600	     -0.14183800	      0.29559800	      0.85446400	     -0.38970200	      0.03883600	      0.92079000	     -0.24808300	      0.03879400	      0.92032900	     -0.30249800	      0.14042000	      0.40357500	     -0.08897200	      0.20839100	      0.41644700	     -0.39675000	      0.16281900	      0.39002100	     -0.23528400	      0.19443500	      0.40968900	     -0.24071600	     -0.12724500	      0.16107200	     -0.13061400	      0.21566400	      0.05500200	     -0.33726000	     -0.11248700	      0.15899200	     -0.20395700	      0.22540300	      0.07798000	     -0.26138000	      0.07285300	      1.35044800	     -0.28142300	      0.19776600	      1.27602800	     -0.24404700	      0.19478500	      1.27568100	     -0.32638500	      0.17853700	      1.27164600	     -0.29698800	      0.22578500	      1.19465000	     -0.29691700	      0.30355300	      0.55961100	     -0.08249900	      0.36743900	      0.60787000	     -0.33351400	      0.26847900	      0.57865100	     -0.11000800	      0.32005000	      0.61946200	     -0.34641500	      0.24702600	      0.50344800	     -0.11411100	      0.30870100	      0.54732700	     -0.33840500	      0.04157700	      0.18930300	     -0.13529400	      0.20386400	      0.15579200	     -0.41243300	      0.00799600	      0.22705200	     -0.14566300	      0.20357800	      0.17047800	     -0.36786800	     -0.08791300	      0.05199200	     -0.17129400	      0.33509400	      0.04676400	     -0.31268800	      0.00000000	      0.00000000	      0.00000000	      0.58526129	      0.00000000	     -0.23212460	    -50.16365663	    794.36932964	     27.71257020	      0.24450975	      0.00000000	     -0.30732822	      0.00000000	      0.00000000	      0.00000000	      0.00000000	      1.36246021	      0.00000000	      0.17935970	      0.77475512	     -0.27681282	      0.15406431	      0.77692175	     -0.19907294	      0.16566871	      0.77993196	     -0.35423961	      0.14503695	      0.39617097	     -0.15993749	      0.20408267	      0.42168090	     -0.32557189	     -0.11991624	      0.15425198	     -0.16778991	      0.23140307	      0.05860541	     -0.30121097	      0.28632915	      0.85206020	     -0.26577011	      0.27706066	      0.84965599	     -0.14183787	      0.29559764	      0.85446447	     -0.38970235	      0.03883603	      0.92078996	     -0.24808344	      0.03879362	      0.92032903	     -0.30249834	      0.14042011	      0.40357462	     -0.08897186	      0.20839110	      0.41644713	     -0.39674982	      0.16281892	      0.39002144	     -0.23528422	      0.19443516	      0.40968859	     -0.24071604	     -0.12724477	      0.16107161	     -0.13061416	      0.21566403	      0.05500233	     -0.33726025	     -0.11248694	      0.15899229	     -0.20395733	      0.22540286	      0.07798037	     -0.26138020	      0.07285298	      1.35044754	     -0.28142294	      0.19776610	      1.27602792	     -0.24404724	      0.19478522	      1.27568102	     -0.32638529	      0.17853686	      1.27164602	     -0.29698789	      0.22578542	      1.19465017	     -0.29691675	      0.30355275	      0.55961072	     -0.08249862	      0.36743870	      0.60786998	     -0.33351442	      0.26847884	      0.57865083	     -0.11000776	      0.32005021	      0.61946195	     -0.34641463	      0.24702606	      0.50344753	     -0.11411128	      0.30870050	      0.54732662	     -0.33840540	      0.04157715	      0.18930314	     -0.13529357	      0.20386419	      0.15579158	     -0.41243330	      0.00799585	      0.22705169	     -0.14566264	      0.20357805	      0.17047751	     -0.36786804	     -0.08791302	      0.05199182	     -0.17129427	      0.33509356	      0.04676448	     -0.31268826
      0.38333000	      0.25653174	      0.84074704	     -0.26880984	     -3.85333648	      2.38384287	     -4.04587725	      3.25279359	     -7.13564913	      0.59543900	    -48.30475859	    -21.34327681	      9.30813488	      5.64819709	     -1.64144709	     -1.88786082	     -5.91644478	      7.53376111	     -4.78023390	     13.87390352	      0.00000000	      0.00000000	      0.00000000	      0.00000000	      0.30413542	      0.82106539	     -0.14862065	      0.32073242	      0.82931660	     -0.39384182	      0.26991429	      0.83980610	     -0.26786176	      0.07732926	      0.92742686	     -0.24981425	      0.07672275	      0.92789997	     -0.30505288	      0.17881589	      0.77925820	     -0.19629399	      0.19055664	      0.78513868	     -0.35618361	      0.18468626	      0.78219844	     -0.27623880	      0.16847527	      0.40196650	     -0.10388785	      0.15796231	      0.39893680	     -0.24859339	      0.32921372	      0.55367669	     -0.10930889	      0.29214201	      0.57488388	     -0.13297459	      0.26411888	      0.50230990	     -0.13572013	     -0.12048744	      0.17463669	     -0.11406981	     -0.09976723	      0.16038868	     -0.18657323	      0.05246557	      0.20078044	     -0.12480789	      0.02794706	      0.23756577	     -0.14283582	      0.17438238	      0.40795700	     -0.16384895	     -0.10489933	      0.16781182	     -0.15980488	     -0.09145071	      0.05778622	     -0.13741880	      0.22138844	      0.40612947	     -0.39756425	      0.21754847	      0.40206058	     -0.24905494	      0.38399048	      0.60241379	     -0.35227676	      0.33570406	      0.61345410	     -0.36043292	      0.32428272	      0.54083109	     -0.35309058	      0.21869230	      0.03736916	     -0.34833164	      0.23368722	      0.05998499	     -0.27312051	      0.19930864	      0.14338364	     -0.42090208	      0.20215673	      0.15838170	     -0.37445539	      0.21849475	      0.42047579	     -0.33123161	      0.23846072	      0.05349214	     -0.30655980	      0.33534132	      0.02530774	     -0.31935438	      0.20765329	      1.28485193	     -0.24820897	      0.20260918	      1.28453558	     -0.32998344	      0.06391759	      1.32132040	     -0.27834754	      0.18923701	      1.27558746	     -0.30027790	      0.25626210	      1.21545575	     -0.30298001	      0.18319600	      0.77458900	     -0.27805500	      0.15790400	      0.77663500	     -0.20031400	      0.16957300	      0.77981900	     -0.35547300	      0.15475900	      0.39547600	     -0.15889900	      0.20591100	      0.42183600	     -0.32625100	     -0.11307600	      0.15734800	     -0.16732300	      0.23171200	      0.05856800	     -0.30120500	      0.29014900	      0.85193000	     -0.26687400	      0.28082900	      0.84938700	     -0.14294000	      0.29947000	      0.85447400	     -0.39080900	      0.04257500	      0.92040300	     -0.24921300	      0.04255400	      0.92017300	     -0.30360200	      0.15032400	      0.40322100	     -0.08795900	      0.20994600	      0.41643500	     -0.39743200	      0.17227700	      0.38824800	     -0.23315200	      0.19778800	      0.40920300	     -0.24130400	     -0.12042900	      0.16430500	     -0.13017800	      0.21587300	      0.05496100	     -0.33721000	     -0.10411100	      0.16076400	     -0.20341900	      0.22616300	      0.07819400	     -0.26146100	      0.07700900	      1.35043200	     -0.28247000	      0.20127300	      1.27584200	     -0.24519800	      0.19882600	      1.27592100	     -0.32717300	      0.18246800	      1.27150600	     -0.29802800	      0.22953000	      1.19470000	     -0.29811700	      0.31148300	      0.56170900	     -0.08284500	      0.37044700	      0.60699300	     -0.33511700	      0.27590300	      0.57988000	     -0.11029800	      0.32276100	      0.61856200	     -0.34791300	      0.25546400	      0.50380500	     -0.11360200	      0.31157500	      0.54702100	     -0.33979400	      0.04893900	      0.19021800	     -0.13429600	      0.20429500	      0.15570800	     -0.41274700	      0.01799700	      0.22889500	     -0.14597400	      0.20434600	      0.17042800	     -0.36820600	     -0.08472700	      0.05371800	     -0.17098300	      0.33519700	      0.04667100	     -0.31274700	      0.00000000	      0.00000000	      0.00000000	      0.58611615	      0.00000000	     -0.23206421	    -49.22634678	    800.18487993	     28.38284367	      0.24564003	      0.00000000	     -0.30781891	      0.00000000	      0.00000000	      0.00000000	      0.00000000	      1.39584229	      0.00000000	      0.18319616	      0.77458882	     -0.27805483	      0.15790443	      0.77663499	     -0.20031449	      0.16957302	      0.77981931	     -0.35547286	      0.15475906	      0.39547640	     -0.15889943	      0.20591146	      0.42183587	     -0.32625097	     -0.11307569	      0.15734810	     -0.16732344	      0.23171246	      0.05856824	     -0.30120492	      0.29014921	      0.85193026	     -0.26687446	      0.28082883	      0.84938675	     -0.14294027	      0.29946959	      0.85447383	     -0.39080864	      0.04257543	      0.92040288	     -0.24921341	      0.04255401	      0.92017263	     -0.30360219	      0.15032434	      0.40322113	     -0.08795859	      0.20994566	      0.41643491	     -0.39743248	      0.17227685	      0.38824806	     -0.23315211	      0.19778813	      0.40920308	     -0.24130355	     -0.12042896	      0.16430464	     -0.13017797	      0.21587257	      0.05496082	     -0.33720955	     -0.10411115	      0.16076390	     -0.20341858	      0.22616340	      0.07819390	     -0.26146060	      0.07700934	      1.35043240	     -0.28247035	      0.20127285	      1.27584183	     -0.24519838	      0.19882603	      1.27592146	     -0.32717308	      0.18246795	      1.27150607	     -0.29802781	      0.22953014	      1.19470036	     -0.29811651	      0.31148347	      0.56170881	     -0.08284450	      0.37044686	      0.60699260	     -0.33511686	      0.27590302	      0.57988030	     -0.11029812	      0.32276124	      0.61856151	     -0.34791297	      0.25546405	      0.50380534	     -0.11360213	      0.31157541	      0.54702091	     -0.33979413	      0.04893898	      0.19021767	     -0.13429648	      0.20429502	      0.15570815	     -0.41274732	      0.01799687	      0.22889473	     -0.14597432	      0.20434643	      0.17042752	     -0.36820582	     -0.08472697	      0.05371814	     -0.17098261	      0.33519700	      0.04667124	     -0.31274685
      0.39167000	      0.26032563	      0.84069451	     -0.27002575	     -3.80290918	      2.46049313	     -4.08926866	      4.15921512	     -7.40515871	      0.89016490	    -49.96019349	    -22.65981713	      8.94607667	      5.82225793	     -1.86872533	     -1.78516859	     -5.70643220	      7.47641558	     -4.83990237	     14.05374624	      0.00000000	      0.00000000	      0.00000000	      0.00000000	      0.30784457	      0.82089883	     -0.14982176	      0.32464146	      0.82947913	     -0.39501802	      0.27370817	      0.83976370	     -0.26906757	      0.08103369	      0.92719794	     -0.25107029	      0.08047339	      0.92774150	     -0.30630875	      0.18260083	      0.77904672	     -0.19765459	      0.19447149	      0.78514255	     -0.35752655	      0.18853616	      0.78209463	     -0.27759057	      0.17856978	      0.40206221	     -0.10352022	      0.16757416	      0.39820972	     -0.24817032	      0.33686715	      0.55626736	     -0.11022354	      0.29937784	      0.57677839	     -0.13384495	      0.27249639	      0.50375892	     -0.13616014	     -0.11347920	      0.17816542	     -0.11272942	     -0.09302790	      0.16344974	     -0.18521578	      0.05978451	      0.20204342	     -0.12373269	      0.03572233	      0.23909214	     -0.14183596	      0.18432126	      0.40751898	     -0.16348737	     -0.09803301	      0.17101284	     -0.15846257	     -0.08845470	      0.06051307	     -0.13642413	      0.22291881	      0.40589092	     -0.39839086	      0.21951029	      0.40208145	     -0.24986414	      0.38682492	      0.60127459	     -0.35391702	      0.33858030	      0.61258946	     -0.36194325	      0.32674931	      0.54004759	     -0.35444906	      0.21884913	      0.03723333	     -0.34852267	      0.23417752	      0.05991329	     -0.27339813	      0.19967663	      0.14320515	     -0.42121142	      0.20273504	      0.15826956	     -0.37479959	      0.22030290	      0.42036577	     -0.33207383	      0.23881744	      0.05334414	     -0.30684132	      0.33562778	      0.02507994	     -0.31998686	      0.21157237	      1.28470694	     -0.24943750	      0.20634343	      1.28440414	     -0.33120042	      0.06778314	      1.32123549	     -0.27924618	      0.19303492	      1.27545700	     -0.30146600	      0.26003036	      1.21529965	     -0.30432798	      0.18696200	      0.77443500	     -0.27921200	      0.16165200	      0.77636900	     -0.20147900	      0.17343600	      0.77969300	     -0.35662600	      0.16458100	      0.39495300	     -0.15791500	      0.20766200	      0.42198900	     -0.32688200	     -0.10598000	      0.16046700	     -0.16686200	      0.23202000	      0.05854400	     -0.30122100	      0.29388900	      0.85182300	     -0.26787500	      0.28447500	      0.84916700	     -0.14392500	      0.30330300	      0.85447900	     -0.39182500	      0.04624000	      0.91999800	     -0.25037500	      0.04622900	      0.92000700	     -0.30472500	      0.16032900	      0.40302000	     -0.08699900	      0.21144900	      0.41643200	     -0.39806500	      0.18280400	      0.38678500	     -0.23199000	      0.19784200	      0.41013800	     -0.24325800	     -0.11335300	      0.16755800	     -0.12974600	      0.21607300	      0.05493600	     -0.33717900	     -0.09266200	      0.16600000	     -0.20327400	      0.22622900	      0.07828700	     -0.26143100	      0.08094100	      1.35044000	     -0.28346500	      0.20478200	      1.27570100	     -0.24637100	      0.20264000	      1.27605100	     -0.32843100	      0.18633100	      1.27136700	     -0.29906800	      0.23314300	      1.19470000	     -0.29948700	      0.31940900	      0.56392700	     -0.08321800	      0.37343000	      0.60611500	     -0.33658200	      0.28319400	      0.58115100	     -0.11067200	      0.32581000	      0.61792600	     -0.34930300	      0.26424000	      0.50457800	     -0.11347300	      0.31358300	      0.54660600	     -0.34141200	      0.05654100	      0.19130100	     -0.13334300	      0.20468800	      0.15566100	     -0.41303300	      0.03513600	      0.23122300	     -0.14467600	      0.20465400	      0.17053800	     -0.36829700	     -0.08116600	      0.05563600	     -0.17062000	      0.33529900	      0.04660100	     -0.31280700	      0.00000000	      0.00000000	      0.00000000	      0.58680328	      0.00000000	     -0.23198601	    -48.02800916	    806.02846344	     28.92302013	      0.24696971	      0.00000000	     -0.30830377	      0.00000000	      0.00000000	      0.00000000	      0.00000000	      1.44082874	      0.00000000	      0.18696238	      0.77443486	     -0.27921194	      0.16165248	      0.77636868	     -0.20147929	      0.17343642	      0.77969265	     -0.35662600	      0.16458051	      0.39495325	     -0.15791541	      0.20766243	      0.42198920	     -0.32688192	     -0.10598007	      0.16046740	     -0.16686225	      0.23201993	      0.05854360	     -0.30122110	      0.29388905	      0.85182291	     -0.26787534	      0.28447461	      0.84916729	     -0.14392526	      0.30330348	      0.85447854	     -0.39182541	      0.04624020	      0.91999781	     -0.25037497	      0.04622851	      0.92000741	     -0.30472514	      0.16032857	      0.40302038	     -0.08699932	      0.21144913	      0.41643244	     -0.39806503	      0.18280397	      0.38678503	     -0.23198950	      0.19784167	      0.41013810	     -0.24325767	     -0.11335267	      0.16755806	     -0.12974598	      0.21607339	      0.05493613	     -0.33717862	     -0.09266182	      0.16600016	     -0.20327429	      0.22622916	      0.07828721	     -0.26143062	      0.08094122	      1.35044003	     -0.28346527	      0.20478225	      1.27570057	     -0.24637097	      0.20263967	      1.27605057	     -0.32843110	      0.18633085	      1.27136707	     -0.29906836	      0.23314348	      1.19469953	     -0.29948655	      0.31940928	      0.56392670	     -0.08321843	      0.37343001	      0.60611498	     -0.33658218	      0.28319433	      0.58115059	     -0.11067215	      0.32581016	      0.61792606	     -0.34930298	      0.26424038	      0.50457841	     -0.11347336	      0.31358320	      0.54660565	     -0.34141198	      0.05654085	      0.19130073	     -0.13334255	      0.20468819	      0.15566070	     -0.41303298	      0.03513600	      0.23122317	     -0.14467576	      0.20465417	      0.17053774	     -0.36829725	     -0.08116619	      0.05563594	     -0.17062017	      0.33529946	      0.04660130	     -0.31280711
